<?xml version="1.0" encoding="UTF-8" standalone="no"?>
<svg
   xmlns:dc="http://purl.org/dc/elements/1.1/"
   xmlns:cc="http://creativecommons.org/ns#"
   xmlns:rdf="http://www.w3.org/1999/02/22-rdf-syntax-ns#"
   xmlns:svg="http://www.w3.org/2000/svg"
   xmlns="http://www.w3.org/2000/svg"
   viewBox="0 0 165.84 275.70667"
   height="275.70667"
   width="165.84"
   xml:space="preserve"
   id="svg2"
   version="1.1"><metadata
     id="metadata8"><rdf:RDF><cc:Work
         rdf:about=""><dc:format>image/svg+xml</dc:format><dc:type
           rdf:resource="http://purl.org/dc/dcmitype/StillImage" /></cc:Work></rdf:RDF></metadata><defs
     id="defs6" /><g
     transform="matrix(1.3333333,0,0,-1.3333333,0,275.70667)"
     id="g10"><g
       transform="scale(0.1)"
       id="g12"><path
         id="path14"
         style="fill:#e57019;fill-opacity:1;fill-rule:nonzero;stroke:none"
         d="M 1225.18,957.27 C 1195.63,1016.62 1113.79,1066 1005.03,980.309 858.031,864.48 621.91,864.48 621.91,864.48 c 0,0 -236.125,0 -383.125,115.829 C 130.023,1066 48.1875,1016.62 18.6445,957.27 -32.8711,853.789 25.332,803.77 156.672,719.461 268.852,647.441 422.992,620.539 522.535,610.48 L 439.449,527.391 C 322.406,410.359 209.434,297.379 131.051,218.988 84.1836,172.141 84.1836,96.1484 131.051,49.2813 l 14.14,-14.1407 c 46.864,-46.8594 122.84,-46.8515 169.707,0 L 623.297,343.539 C 740.336,226.512 853.305,113.531 931.695,35.1484 c 46.856,-46.8593 122.845,-46.8593 169.705,0 l 14.14,14.1407 c 46.87,46.8711 46.86,122.8519 0,169.7109 l -308.395,308.398 -83.352,83.34 c 99.621,10.262 252.109,37.301 363.357,108.723 131.33,84.309 189.53,134.328 138.03,237.809 z m -603.27,844.67 c 142.195,0 257.481,-115.28 257.481,-257.47 0,-142.2 -115.286,-257.47 -257.481,-257.47 -142.199,0 -257.472,115.27 -257.472,257.47 0,142.19 115.273,257.47 257.472,257.47 z m 0,-780.81 c 289.031,0 523.35,234.31 523.35,523.34 0,289.03 -234.319,523.34 -523.35,523.34 -289.039,0 -523.3436,-234.31 -523.3436,-523.34 0,-289.03 234.3046,-523.34 523.3436,-523.34" /></g></g></svg>