<?xml version="1.0" standalone="no"?>
<!DOCTYPE svg PUBLIC "-//W3C//DTD SVG 20010904//EN"
 "http://www.w3.org/TR/2001/REC-SVG-20010904/DTD/svg10.dtd">
<svg version="1.0" xmlns="http://www.w3.org/2000/svg"
 width="1200.000000pt" height="630.000000pt" viewBox="0 0 1200.000000 630.000000"
 preserveAspectRatio="xMidYMid meet">

<g transform="translate(0.000000,630.000000) scale(0.100000,-0.100000)"
fill="#000000" stroke="none">
<path d="M4695 5274 c-148 -22 -185 -33 -178 -52 4 -14 3 -14 -5 -3 -9 12 -17
12 -59 -3 -59 -22 -193 -97 -193 -108 0 -4 -5 -8 -11 -8 -19 0 -99 -72 -92
-83 3 -6 1 -7 -5 -3 -14 9 -124 -124 -117 -142 2 -7 1 -11 -4 -7 -25 15 -112
-189 -144 -334 -20 -94 -21 -122 -24 -1321 -5 -1343 -4 -1377 53 -1555 73
-226 233 -420 434 -524 108 -57 214 -88 353 -106 106 -14 283 -15 1357 -12
679 2 1251 6 1270 11 252 53 408 133 546 277 144 152 219 319 249 552 14 106
15 283 13 1347 -4 1340 -2 1290 -63 1470 -95 279 -320 488 -619 575 -145 42
-196 44 -1461 43 -971 0 -1228 -3 -1300 -14z m1755 -629 c566 -91 840 -302
955 -736 50 -191 59 -275 59 -554 -1 -564 -80 -837 -308 -1052 -123 -118 -249
-181 -478 -238 -203 -52 -340 -67 -643 -71 l-280 -4 -84 -92 c-145 -161 -213
-229 -245 -249 -72 -44 -154 -9 -175 75 -6 25 -11 117 -11 205 l0 159 -52 17
c-223 73 -413 235 -516 440 -102 204 -143 457 -136 841 7 393 66 642 199 838
67 99 97 132 169 185 167 123 445 217 747 250 138 15 676 6 799 -14z"/>
<path d="M5680 4439 c-387 -45 -645 -172 -766 -378 -114 -196 -148 -373 -148
-776 -1 -281 9 -361 60 -515 74 -225 231 -386 447 -459 l52 -18 5 -279 c5
-274 5 -279 26 -282 25 -4 70 43 293 302 l154 179 196 2 c258 3 436 26 659 85
335 88 499 283 559 661 14 89 18 174 18 384 0 241 -2 282 -22 381 -93 454
-275 610 -818 701 -105 18 -596 26 -715 12z m431 -363 c156 -25 310 -104 417
-214 125 -127 191 -283 208 -489 8 -91 -1 -113 -42 -113 -32 0 -40 21 -47 120
-7 108 -28 186 -72 275 -94 186 -300 324 -511 341 -98 8 -112 12 -125 35 -8
16 -7 25 7 40 20 23 50 24 165 5z m-564 -100 c34 -29 128 -150 172 -223 66
-108 61 -160 -24 -224 -81 -61 -83 -82 -25 -204 82 -171 220 -301 378 -355 85
-29 110 -21 162 47 39 52 89 77 134 69 68 -13 314 -193 336 -247 18 -43 1 -91
-58 -164 -58 -73 -140 -125 -195 -125 -75 0 -333 122 -517 245 -192 128 -320
256 -452 455 -77 116 -211 379 -230 451 -17 66 8 126 82 200 97 98 179 124
237 75z m606 -95 c109 -28 182 -67 248 -134 68 -67 113 -152 134 -252 19 -89
19 -115 -1 -143 -36 -52 -69 -17 -77 83 -14 193 -149 334 -351 370 -80 13
-106 27 -106 54 0 45 39 51 153 22z m40 -195 c88 -32 147 -110 162 -217 6 -41
4 -48 -16 -62 -28 -20 -57 -7 -64 31 -29 138 -45 154 -186 186 -32 7 -43 30
-29 57 13 23 75 25 133 5z"/>
</g>
</svg>
