<?xml version="1.0" standalone="no"?>
<!DOCTYPE svg PUBLIC "-//W3C//DTD SVG 20010904//EN"
 "http://www.w3.org/TR/2001/REC-SVG-20010904/DTD/svg10.dtd">
<svg version="1.0" xmlns="http://www.w3.org/2000/svg"
 width="900.000000pt" height="900.000000pt" viewBox="0 0 900.000000 900.000000"
 preserveAspectRatio="xMidYMid meet">

<g transform="translate(0.000000,900.000000) scale(0.100000,-0.100000)"
fill="#000000" stroke="none">
<path d="M1575 8990 c-3 -6 -52 -10 -111 -10 -63 0 -104 -4 -104 -10 0 -5 -22
-10 -49 -10 -28 0 -53 -4 -56 -10 -3 -5 -19 -10 -35 -10 -16 0 -32 -5 -36 -11
-3 -6 -15 -9 -25 -6 -10 3 -22 1 -25 -4 -3 -5 -16 -9 -30 -9 -13 0 -24 -4 -24
-10 0 -5 -9 -10 -20 -10 -11 0 -35 -9 -55 -20 -19 -11 -39 -19 -43 -18 -6 2
-62 -24 -163 -77 -10 -5 -19 -13 -19 -17 0 -5 -5 -8 -12 -8 -6 0 -20 -7 -30
-17 -19 -17 -49 -36 -83 -52 -12 -5 -37 -27 -58 -50 -20 -23 -41 -41 -47 -41
-10 0 -160 -149 -160 -159 0 -3 -14 -20 -31 -37 -31 -32 -48 -58 -68 -99 -5
-12 -16 -27 -25 -34 -9 -7 -16 -20 -16 -27 0 -8 -3 -14 -8 -14 -4 0 -12 -9
-17 -19 -53 -101 -79 -157 -77 -163 1 -4 -7 -24 -18 -43 -11 -20 -20 -44 -20
-55 0 -11 -4 -20 -10 -20 -5 0 -10 -11 -10 -24 0 -14 -4 -27 -9 -30 -5 -3 -7
-15 -4 -25 3 -10 0 -22 -6 -25 -6 -4 -11 -20 -11 -36 0 -16 -4 -32 -10 -35 -5
-3 -10 -28 -10 -56 0 -27 -4 -49 -10 -49 -6 0 -10 -40 -10 -100 0 -60 -4 -100
-10 -100 -7 0 -10 -993 -10 -2960 0 -1967 3 -2960 10 -2960 6 0 10 -38 10 -94
0 -53 4 -98 10 -101 6 -3 10 -28 10 -55 0 -27 5 -52 11 -56 6 -3 9 -17 6 -30
-2 -14 0 -27 4 -30 5 -3 9 -14 9 -25 0 -10 5 -28 10 -39 6 -11 15 -29 20 -40
6 -11 10 -29 10 -39 0 -11 4 -22 9 -25 5 -3 12 -18 15 -33 8 -34 48 -117 59
-121 4 -2 7 -10 7 -17 0 -8 6 -20 13 -27 7 -7 20 -29 30 -49 9 -20 23 -42 32
-49 8 -7 13 -16 10 -20 -2 -4 4 -15 15 -25 11 -10 20 -22 20 -28 0 -5 16 -24
35 -43 19 -18 35 -36 35 -41 0 -5 41 -49 90 -98 50 -49 90 -86 90 -81 0 4 17
-10 38 -31 39 -39 63 -57 97 -72 12 -5 27 -16 34 -24 7 -9 25 -18 40 -22 15
-3 33 -15 41 -25 8 -11 22 -20 32 -20 10 0 18 -4 18 -9 0 -5 13 -12 30 -16 16
-4 32 -11 35 -16 4 -5 17 -9 31 -9 13 0 24 -3 24 -7 0 -11 50 -33 71 -33 10 0
20 -4 24 -10 3 -5 12 -7 19 -4 8 3 17 1 21 -5 3 -6 17 -11 30 -11 13 0 27 -4
30 -10 3 -5 19 -10 35 -10 16 0 32 -4 35 -10 9 -14 6525 -14 6525 0 0 6 14 10
30 10 17 0 38 4 48 9 51 26 71 33 80 27 6 -3 13 -2 17 4 3 5 17 10 31 10 13 0
24 3 24 8 0 8 48 32 64 32 15 0 124 55 144 73 9 8 28 18 42 22 14 4 32 15 40
25 8 9 22 20 30 24 39 19 65 37 101 72 21 21 39 34 39 29 0 -5 38 28 85 75 47
47 85 89 85 95 0 6 18 28 40 50 21 21 37 41 35 45 -3 4 4 15 15 25 11 10 20
23 20 29 0 7 9 18 20 26 10 8 22 26 25 41 4 15 13 33 21 40 16 13 54 90 54
108 0 6 5 11 10 11 6 0 10 8 10 18 0 22 22 72 33 72 4 0 7 11 7 24 0 14 5 28
10 31 6 4 7 11 4 17 -6 9 1 29 27 80 5 10 9 31 9 48 0 16 5 30 10 30 7 0 10
1093 10 3260 0 2167 -3 3260 -10 3260 -5 0 -10 15 -10 34 0 19 -4 38 -10 41
-5 3 -10 17 -10 31 0 13 -4 24 -10 24 -5 0 -10 11 -10 24 0 14 -5 28 -10 31
-6 4 -8 15 -5 26 4 11 2 19 -4 19 -6 0 -11 9 -11 20 0 11 -4 20 -10 20 -5 0
-10 8 -10 18 0 21 -22 72 -32 72 -3 0 -9 13 -13 29 -3 16 -13 35 -21 42 -8 7
-24 31 -35 53 -27 57 -41 79 -61 94 -10 7 -18 19 -18 26 0 6 -16 27 -35 46
-19 19 -35 39 -35 45 0 13 -142 155 -156 155 -5 0 -28 18 -49 41 -22 22 -49
45 -60 50 -29 13 -58 32 -75 50 -8 8 -31 23 -50 33 -56 28 -115 61 -120 67 -7
7 -42 21 -60 24 -28 3 -60 17 -60 26 0 5 -11 9 -24 9 -14 0 -28 5 -31 10 -3 6
-17 10 -31 10 -13 0 -24 5 -24 11 0 6 -8 8 -19 4 -11 -3 -22 -1 -26 5 -3 5
-22 10 -41 10 -19 0 -34 5 -34 10 0 6 -22 10 -49 10 -28 0 -53 5 -56 10 -3 6
-52 10 -111 10 -63 0 -104 4 -104 10 0 7 -986 10 -2939 10 -1949 0 -2942 -3
-2946 -10z m3515 -1305 c703 -58 1251 -220 1665 -493 137 -90 318 -271 411
-412 385 -580 518 -1456 404 -2655 -73 -761 -301 -1255 -740 -1604 -108 -87
-174 -128 -313 -197 -142 -72 -250 -111 -481 -174 -330 -90 -584 -134 -1006
-172 -154 -13 -700 -17 -896 -5 l-130 8 -89 -103 c-159 -184 -428 -481 -500
-554 -38 -39 -92 -84 -120 -100 -44 -26 -59 -29 -132 -29 -74 0 -85 3 -125 30
-31 22 -52 49 -78 100 l-35 69 -5 391 -5 390 -105 36 c-628 213 -1034 642
-1235 1304 -122 401 -165 863 -145 1536 11 386 25 528 77 809 75 409 216 742
428 1015 278 358 767 607 1450 739 214 41 546 79 785 90 157 7 752 -6 920 -19z"/>
<path d="M4245 7233 c-758 -24 -1390 -206 -1750 -504 -242 -200 -429 -554
-514 -974 -52 -259 -68 -444 -77 -886 -13 -683 48 -1102 212 -1449 178 -377
450 -618 864 -770 l125 -46 0 -580 c0 -636 -2 -614 59 -614 26 0 46 15 126 97
91 93 424 478 688 795 l123 147 242 -6 c504 -12 1002 43 1471 161 253 65 312
84 436 143 444 213 723 624 814 1203 46 286 68 596 67 940 0 508 -52 875 -172
1216 -88 253 -237 493 -381 616 -290 248 -841 426 -1508 488 -108 10 -665 32
-720 28 -14 -1 -61 -3 -105 -5z m556 -813 c317 -65 567 -199 796 -425 184
-182 294 -357 373 -594 61 -181 100 -413 100 -591 0 -59 -4 -73 -26 -99 -33
-39 -80 -42 -120 -7 -27 23 -28 28 -35 157 -10 194 -36 339 -84 484 -155 461
-546 802 -1030 899 -44 8 -141 20 -215 26 -145 12 -171 22 -184 76 -7 27 15
77 41 94 27 17 262 5 384 -20z m-1293 -169 c80 -42 295 -314 435 -551 62 -104
81 -171 72 -240 -10 -73 -43 -119 -145 -201 -105 -84 -126 -112 -136 -177 -15
-103 134 -409 294 -604 168 -204 376 -349 611 -428 145 -49 210 -32 292 78
113 149 175 189 284 180 65 -6 127 -35 280 -136 208 -136 412 -307 446 -374
57 -112 -11 -268 -201 -459 -76 -77 -110 -103 -171 -132 -116 -56 -167 -58
-306 -12 -113 37 -408 176 -596 281 -669 372 -1090 791 -1459 1454 -207 371
-328 659 -328 778 0 120 55 227 176 346 146 142 269 216 360 216 34 0 69 -7
92 -19z m1312 -236 c210 -46 368 -127 513 -265 211 -199 312 -426 324 -727 6
-131 6 -131 -20 -157 -34 -34 -88 -35 -121 -3 -20 20 -24 37 -30 132 -10 169
-37 278 -97 398 -135 266 -382 426 -727 471 -94 12 -109 17 -129 40 -39 45
-23 114 31 136 30 12 132 2 256 -25z m18 -401 c242 -50 392 -221 422 -483 10
-88 -1 -126 -41 -146 -39 -21 -64 -19 -94 8 -22 18 -28 37 -40 112 -17 116
-41 177 -89 232 -60 69 -122 94 -288 118 -75 11 -102 92 -49 146 35 34 65 37
179 13z"/>
</g>
</svg>
